<?xml version="1.0" encoding="utf-8"?>
<!-- Generator: Adobe Illustrator 27.0.1, SVG Export Plug-In . SVG Version: 6.00 Build 0)  -->
<svg version="1.1" id="Layer_1" xmlns="http://www.w3.org/2000/svg" xmlns:xlink="http://www.w3.org/1999/xlink" x="0px" y="0px"
	 viewBox="0 0 1365.6 135.9" style="enable-background:new 0 0 1365.6 135.9;" xml:space="preserve">
<style type="text/css">
	.st0{fill:#54754D;}
	.st1{fill:#FFFFFF;stroke:#F1F1F1;stroke-miterlimit:10;}
	.st2{fill:#FFFFFF;}
	.st3{font-family:'Varsity-Regular';}
	.st4{font-size:25.1369px;}
	.st5{fill:#F1F1F1;}
	.st6{font-family:'MonsterAG-Regular';}
	.st7{font-size:41.3618px;}
	.st8{letter-spacing:-2;}
	.st9{font-size:58.1948px;}
	.st10{font-family:'Avenir-Heavy';}
	.st11{font-size:15px;}
	.st12{fill:none;stroke:#FFFFFF;stroke-miterlimit:10;}
	.st13{fill:#CBCBCB;}
	.st14{font-family:'Avenir-Medium';}
	.st15{font-size:10px;}
</style>
<g>
	<rect x="-0.2" y="-0.1" class="st0" width="1366" height="136"/>
	<g>
		<line class="st1" x1="351" y1="30.5" x2="351" y2="72.8"/>
		<g>
			<text transform="matrix(1 0 0 1 174.7378 72.8445)" class="st2 st3 st4">UNIVERSITY</text>
			<g>
				<text transform="matrix(1 0 0 1 203.541 55.4089)"><tspan x="0" y="0" class="st5 st6 st7">o</tspan><tspan x="23.1" y="0" class="st5 st6 st7 st8">n</tspan><tspan x="43.7" y="0" class="st5 st6 st7">s</tspan><tspan x="63.1" y="0" class="st5 st6 st7">te</tspan><tspan x="96.3" y="0" class="st5 st6 st7 st8">r</tspan><tspan x="115.1" y="0" class="st5 st6 st7">s</tspan></text>
				<text transform="matrix(1 0 0 1 164.6001 57.782)" class="st5 st6 st9 st8">M</text>
			</g>
		</g>
	</g>
	<text transform="matrix(1 0 0 1 392.7207 57.4772)" class="st2 st10 st11">0800 04 04 04       +64 4 472 1000     info@mu.ac.nz    Emergency +64 4 463 9999   or ext.   8888    (internal)</text>
	<line class="st12" x1="165.5" y1="93.4" x2="1196" y2="93.4"/>
	<g>
		<text transform="matrix(1 0 0 1 165.4482 118.0221)" class="st13 st14 st15">Site info    Site map    Feedback     Glossery</text>
	</g>
	<g>
		<text transform="matrix(1 0 0 1 974.9873 118.0219)" class="st13 st14 st15">Copyright @  Monsters University of Monstroplis</text>
	</g>
</g>
</svg>
