<?xml version="1.0" encoding="utf-8"?>
<!-- Generator: Adobe Illustrator 27.0.1, SVG Export Plug-In . SVG Version: 6.00 Build 0)  -->
<svg version="1.1" id="Layer_1" xmlns="http://www.w3.org/2000/svg" xmlns:xlink="http://www.w3.org/1999/xlink" x="0px" y="0px"
	 viewBox="0 0 1032.6 102.9" style="enable-background:new 0 0 1032.6 102.9;" xml:space="preserve">
<style type="text/css">
	.st0{fill:#4C77AD;}
	.st1{fill:#FFFFFF;stroke:#F1F1F1;stroke-miterlimit:10;}
	.st2{fill:#FFFFFF;}
	.st3{font-family:'Varsity-Regular';}
	.st4{font-size:19.0094px;}
	.st5{fill:#F1F1F1;}
	.st6{font-family:'MonsterAG-Regular';}
	.st7{font-size:31.2791px;}
	.st8{letter-spacing:-1;}
	.st9{font-size:44.0088px;}
	.st10{font-family:'Avenir-Heavy';}
	.st11{font-size:11.3435px;}
	.st12{fill:none;stroke:#FFFFFF;stroke-miterlimit:10;}
	.st13{fill:#CBCBCB;}
	.st14{font-family:'Avenir-Medium';}
	.st15{font-size:7.5623px;}
</style>
<g>
	<rect x="0" y="-0.1" class="st0" width="1033" height="102.8"/>
	<g>
		<line class="st1" x1="265.6" y1="23.1" x2="265.6" y2="55.1"/>
		<g>
			<text transform="matrix(1 0 0 1 132.3018 55.0703)" class="st2 st3 st4">UNIVERSITY</text>
			<g>
				<text transform="matrix(1 0 0 1 154.084 41.8857)"><tspan x="0" y="0" class="st5 st6 st7">o</tspan><tspan x="17.5" y="0" class="st5 st6 st7 st8">n</tspan><tspan x="33" y="0" class="st5 st6 st7">s</tspan><tspan x="47.7" y="0" class="st5 st6 st7">te</tspan><tspan x="72.8" y="0" class="st5 st6 st7 st8">r</tspan><tspan x="87" y="0" class="st5 st6 st7">s</tspan></text>
				<text transform="matrix(1 0 0 1 124.6348 43.6797)" class="st5 st6 st9 st8">M</text>
			</g>
		</g>
	</g>
	<text transform="matrix(1 0 0 1 297.1475 43.4492)" class="st2 st10 st11">0800 04 04 04       +64 4 472 1000     info@mu.ac.nz    Emergency +64 4 463 9999   or ext.   8888    (internal)</text>
	<line class="st12" x1="125.3" y1="70.6" x2="904.6" y2="70.6"/>
	<g>
		<text transform="matrix(1 0 0 1 125.2764 89.2354)" class="st13 st14 st15">Site info    Site map    Feedback     Glossery</text>
	</g>
	<g>
		<text transform="matrix(1 0 0 1 737.4766 89.2354)" class="st13 st14 st15">Copyright @  Monsters University of Monstroplis</text>
	</g>
</g>
</svg>
