<?xml version="1.0" encoding="utf-8"?>
<!-- Generator: Adobe Illustrator 27.0.1, SVG Export Plug-In . SVG Version: 6.00 Build 0)  -->
<svg version="1.1" id="Layer_1" xmlns="http://www.w3.org/2000/svg" xmlns:xlink="http://www.w3.org/1999/xlink" x="0px" y="0px"
	 viewBox="0 0 800 1100" style="enable-background:new 0 0 800 1100;" xml:space="preserve">
<style type="text/css">
	.st0{fill:#D8EC9B;}
	.st1{fill-rule:evenodd;clip-rule:evenodd;fill:#47670D;}
	.st2{fill:#FFFFFF;}
	.st3{font-family:'Futura-Medium';}
	.st4{font-size:120.8096px;}
</style>
<path class="st0" d="M587.5,800h-375C95.6,800,0,704.4,0,587.5v-375C0,95.6,95.6,0,212.5,0h375C704.4,0,800,95.6,800,212.5v375
	C800,704.4,704.4,800,587.5,800z"/>
<g>
	<g>
		<path class="st1" d="M597.7,192.5H265.3c-16.7,0-30.2,13.5-30.2,30.2v30.2h287c26,0,45.3,20.1,45.3,45.3v166.2h30.2
			c16.7,0,30.2-13.5,30.2-30.2V222.7C627.9,206,614.4,192.5,597.7,192.5z"/>
		<path class="st1" d="M522.2,268H174.7c-16.7,0-30.2,13.5-30.2,30.2v226.6c0,16.7,13.5,30.2,30.2,30.2h52.9c4.2,0,7.6,3.4,7.6,7.6
			v83.1c0,12.2,7.3,23.2,18.6,27.9c3.7,1.6,7.7,2.3,11.6,2.3c7.8,0,15.6-3.1,21.4-8.9l106.9-106.9c0,0,3.9-5.1,12.6-5.1
			s115.9,0,115.9,0c16.7,0,30.2-13.5,30.2-30.2V298.2C552.4,281.6,538.9,268,522.2,268z M242.7,358.7h98.2c4.2,0,7.6,3.4,7.6,7.6
			s-3.4,7.6-7.6,7.6h-98.2c-4.2,0-7.6-3.4-7.6-7.6S238.5,358.7,242.7,358.7z M401.3,464.4H242.7c-4.2,0-7.6-3.4-7.6-7.6
			s3.4-7.6,7.6-7.6h158.6c4.2,0,7.6,3.4,7.6,7.6S405.5,464.4,401.3,464.4z M454.2,419.1H242.7c-4.2,0-7.6-3.4-7.6-7.6
			s3.4-7.6,7.6-7.6h211.5c4.2,0,7.6,3.4,7.6,7.6C461.7,415.7,458.4,419.1,454.2,419.1z"/>
	</g>
</g>
<text transform="matrix(1 0 0 1 112.2515 1007.3299)" class="st2 st3 st4">CONTACT</text>
</svg>
