<?xml version="1.0" encoding="utf-8"?>
<!-- Generator: Adobe Illustrator 27.0.1, SVG Export Plug-In . SVG Version: 6.00 Build 0)  -->
<svg version="1.1" id="Layer_1" xmlns="http://www.w3.org/2000/svg" xmlns:xlink="http://www.w3.org/1999/xlink" x="0px" y="0px"
	 viewBox="0 0 800 800" style="enable-background:new 0 0 800 800;" xml:space="preserve">
<style type="text/css">
	.st0{fill-rule:evenodd;clip-rule:evenodd;fill:#47670D;}
</style>
<g>
	<g>
		<path class="st0" d="M750,0H200c-27.6,0-50,22.4-50,50v50h475c43,0,75,33.2,75,75v275h50c27.6,0,50-22.4,50-50V50
			C800,22.4,777.6,0,750,0z"/>
		<path class="st0" d="M625,125H50c-27.6,0-50,22.4-50,50v375c0,27.6,22.4,50,50,50h87.5c6.9,0,12.5,5.6,12.5,12.5V750
			c0,20.2,12.2,38.5,30.9,46.2c6.2,2.6,12.7,3.8,19.1,3.8c13,0,25.8-5.1,35.3-14.7l177-177c0,0,6.4-8.4,20.9-8.4s191.8,0,191.8,0
			c27.6,0,50-22.4,50-50V175C675,147.4,652.6,125,625,125z M162.5,275H325c6.9,0,12.5,5.6,12.5,12.5S331.9,300,325,300H162.5
			c-6.9,0-12.5-5.6-12.5-12.5S155.6,275,162.5,275z M425,450H162.5c-6.9,0-12.5-5.6-12.5-12.5s5.6-12.5,12.5-12.5H425
			c6.9,0,12.5,5.6,12.5,12.5S431.9,450,425,450z M512.5,375h-350c-6.9,0-12.5-5.6-12.5-12.5s5.6-12.5,12.5-12.5h350
			c6.9,0,12.5,5.6,12.5,12.5S519.4,375,512.5,375z"/>
	</g>
</g>
</svg>
