<?xml version="1.0" encoding="utf-8"?>
<!-- Generator: Adobe Illustrator 27.0.1, SVG Export Plug-In . SVG Version: 6.00 Build 0)  -->
<svg version="1.1" id="Layer_1" xmlns="http://www.w3.org/2000/svg" xmlns:xlink="http://www.w3.org/1999/xlink" x="0px" y="0px"
	 viewBox="0 0 800 800" style="enable-background:new 0 0 800 800;" xml:space="preserve">
<style type="text/css">
	.st0{fill:#D8EC9B;}
	.st1{fill-rule:evenodd;clip-rule:evenodd;fill:#47670D;}
</style>
<path class="st0" d="M587.5,800.6h-375C95.6,800.6,0,705,0,588.1v-375C0,96.2,95.6,0.6,212.5,0.6h375C704.4,0.6,800,96.2,800,213.1
	v375C800,705,704.4,800.6,587.5,800.6z"/>
<g>
	<g>
		<path class="st1" d="M597.7,193.1H265.3c-16.7,0-30.2,13.5-30.2,30.2v30.2h287c26,0,45.3,20.1,45.3,45.3V465h30.2
			c16.7,0,30.2-13.5,30.2-30.2V223.3C627.9,206.6,614.4,193.1,597.7,193.1z"/>
		<path class="st1" d="M522.2,268.6H174.7c-16.7,0-30.2,13.5-30.2,30.2v226.6c0,16.7,13.5,30.2,30.2,30.2h52.9
			c4.2,0,7.6,3.4,7.6,7.6v83.1c0,12.2,7.3,23.2,18.6,27.9c3.7,1.6,7.7,2.3,11.6,2.3c7.8,0,15.6-3.1,21.4-8.9l106.9-106.9
			c0,0,3.9-5.1,12.6-5.1s115.9,0,115.9,0c16.7,0,30.2-13.5,30.2-30.2V298.8C552.4,282.2,538.9,268.6,522.2,268.6z M242.7,359.3h98.2
			c4.2,0,7.6,3.4,7.6,7.6s-3.4,7.6-7.6,7.6h-98.2c-4.2,0-7.6-3.4-7.6-7.6S238.5,359.3,242.7,359.3z M401.3,465H242.7
			c-4.2,0-7.6-3.4-7.6-7.6s3.4-7.6,7.6-7.6h158.6c4.2,0,7.6,3.4,7.6,7.6S405.5,465,401.3,465z M454.2,419.7H242.7
			c-4.2,0-7.6-3.4-7.6-7.6c0-4.2,3.4-7.6,7.6-7.6h211.5c4.2,0,7.6,3.4,7.6,7.6C461.7,416.3,458.4,419.7,454.2,419.7z"/>
	</g>
</g>
</svg>
