<?xml version="1.0" encoding="utf-8"?>
<!-- Generator: Adobe Illustrator 27.0.1, SVG Export Plug-In . SVG Version: 6.00 Build 0)  -->
<svg version="1.1" id="Layer_1" xmlns="http://www.w3.org/2000/svg" xmlns:xlink="http://www.w3.org/1999/xlink" x="0px" y="0px"
	 viewBox="0 0 800 1100" style="enable-background:new 0 0 800 1100;" xml:space="preserve">
<style type="text/css">
	.st0{fill:#D8EC9B;}
	.st1{fill:#47670D;}
	.st2{fill:#FFFFFF;}
	.st3{font-family:'Futura-Medium';}
	.st4{font-size:120.8096px;}
</style>
<path class="st0" d="M587.5,801.5h-375C95.6,801.5,0,705.9,0,589V214C0,97.1,95.6,1.5,212.5,1.5h375C704.4,1.5,800,97.1,800,214v375
	C800,705.9,704.4,801.5,587.5,801.5z"/>
<g>
	<ellipse class="st1" cx="387.8" cy="271.8" rx="23.1" ry="22.9"/>
	<path class="st1" d="M172,355.8h431.5c13.8,0,26-9.1,29.7-22.3c3.7-13.2-1.9-27.2-13.7-34.4L403.8,169.3c-4.9-3-10.5-4.4-16-4.4
		s-11.1,1.5-16,4.4L156,299.1c-11.8,7.1-17.4,21.2-13.7,34.4C146.1,346.7,158.2,355.8,172,355.8z M387.8,233.6
		c21.3,0,38.5,17.1,38.5,38.2S409.1,310,387.8,310s-38.5-17.1-38.5-38.2S366.5,233.6,387.8,233.6z"/>
	<rect x="403.2" y="371.1" class="st1" width="61.6" height="191"/>
	<rect x="495.7" y="371.1" class="st1" width="61.6" height="191"/>
	<rect x="310.7" y="371.1" class="st1" width="61.6" height="191"/>
	<rect x="218.3" y="371.1" class="st1" width="61.6" height="191"/>
	<path class="st1" d="M172,607.9h431.5c0-16.9-13.8-30.6-30.8-30.6H202.9C185.8,577.4,172,591.1,172,607.9z"/>
	<path class="st1" d="M630.1,623.2H145.5c-2.7,4.5-4.3,9.7-4.3,15.3v15.3h493.1v-15.3C634.4,632.9,632.7,627.7,630.1,623.2z"/>
</g>
<text transform="matrix(1 0 0 1 159.8125 1008.7432)" class="st2 st3 st4">ENROLL</text>
</svg>
