<?xml version="1.0" encoding="utf-8"?>
<!-- Generator: Adobe Illustrator 27.0.1, SVG Export Plug-In . SVG Version: 6.00 Build 0)  -->
<svg version="1.1" id="Layer_1" xmlns="http://www.w3.org/2000/svg" xmlns:xlink="http://www.w3.org/1999/xlink" x="0px" y="0px"
	 viewBox="0 0 800 800" style="enable-background:new 0 0 800 800;" xml:space="preserve">
<style type="text/css">
	.st0{fill:#D8EC9B;}
	.st1{fill:#47670D;}
</style>
<path class="st0" d="M587.5,800h-375C95.6,800,0,704.4,0,587.5v-375C0,95.6,95.6,0,212.5,0h375C704.4,0,800,95.6,800,212.5v375
	C800,704.4,704.4,800,587.5,800z"/>
<g>
	<ellipse class="st1" cx="387.8" cy="270.3" rx="23.1" ry="22.9"/>
	<path class="st1" d="M172,354.3h431.5c13.8,0,26-9.1,29.7-22.3c3.7-13.2-1.9-27.2-13.7-34.4L403.8,167.8c-4.9-3-10.5-4.4-16-4.4
		s-11.1,1.5-16,4.4L156,297.6c-11.8,7.1-17.4,21.2-13.7,34.4C146.1,345.2,158.2,354.3,172,354.3z M387.8,232.1
		c21.3,0,38.5,17.1,38.5,38.2s-17.2,38.2-38.5,38.2c-21.3,0-38.5-17.1-38.5-38.2S366.5,232.1,387.8,232.1z"/>
	<rect x="403.2" y="369.6" class="st1" width="61.6" height="191"/>
	<rect x="495.7" y="369.6" class="st1" width="61.6" height="191"/>
	<rect x="310.7" y="369.6" class="st1" width="61.6" height="191"/>
	<rect x="218.3" y="369.6" class="st1" width="61.6" height="191"/>
	<path class="st1" d="M172,606.4h431.5c0-16.9-13.8-30.6-30.8-30.6H202.9C185.8,575.9,172,589.6,172,606.4z"/>
	<path class="st1" d="M630.1,621.7H145.5c-2.7,4.5-4.3,9.7-4.3,15.3v15.3h493.1V637C634.4,631.4,632.7,626.2,630.1,621.7z"/>
</g>
</svg>
