<?xml version="1.0" encoding="utf-8"?>
<!-- Generator: Adobe Illustrator 27.0.1, SVG Export Plug-In . SVG Version: 6.00 Build 0)  -->
<svg version="1.1" id="Layer_1" xmlns="http://www.w3.org/2000/svg" xmlns:xlink="http://www.w3.org/1999/xlink" x="0px" y="0px"
	 viewBox="0 0 800 800" style="enable-background:new 0 0 800 800;" xml:space="preserve">
<style type="text/css">
	.st0{fill:#D8EC9B;}
	.st1{fill:#47670D;}
</style>
<path class="st0" d="M585.7,800h-375C93.8,800-1.8,704.4-1.8,587.5v-375C-1.8,95.6,93.8,0,210.7,0h375
	c116.9,0,212.5,95.6,212.5,212.5v375C798.2,704.4,702.6,800,585.7,800z"/>
<g>
	<path class="st1" d="M398.2,485.3c-13.4,0-26.6-2.5-39.1-7.5l-163.3-64.7c0,36.1,0,90,0,104.4c0,50.7,90.6,91.7,202.4,91.7
		s202.4-41.1,202.4-91.7V413.1l-163.3,64.7C424.8,482.8,411.6,485.3,398.2,485.3z"/>
	<path class="st1" d="M712.6,307.4L426.2,193.8c-18-7.1-38-7.1-56,0L83.7,307.4c-6.7,2.7-11.1,9.1-11.1,16.3
		c0,7.2,4.4,13.7,11.1,16.3l40.1,15.9v113.7c-8.9,6.1-14.8,16.3-14.8,27.9c0,10.6,4.9,20.1,12.6,26.3l-12.2,58.6
		c-1.6,7.9,0.4,16.1,5.4,22.3c5.1,6.2,12.7,9.9,20.7,9.9h14.5c8,0,15.6-3.6,20.7-9.9c5.1-6.2,7.1-14.4,5.4-22.3L164,523.8
		c7.7-6.2,12.6-15.7,12.6-26.3c0-11.6-5.8-21.8-14.8-27.9V371l207.5,82.2c18.6,7.4,39.3,7.4,57.8,0L712.6,340
		c6.7-2.7,11.1-9.1,11.1-16.3C723.7,316.5,719.3,310,712.6,307.4z"/>
</g>
</svg>
