<?xml version="1.0" encoding="utf-8"?>
<!-- Generator: Adobe Illustrator 27.0.1, SVG Export Plug-In . SVG Version: 6.00 Build 0)  -->
<svg version="1.1" id="Layer_1" xmlns="http://www.w3.org/2000/svg" xmlns:xlink="http://www.w3.org/1999/xlink" x="0px" y="0px"
	 viewBox="0 0 800 800" style="enable-background:new 0 0 800 800;" xml:space="preserve">
<style type="text/css">
	.st0{fill:#47670D;}
</style>
<g>
	<path class="st0" d="M400,503c-16.5,0-32.7-3.1-48-9.2l-200.7-79.6c0,44.3,0,110.6,0,128.3c0,62.2,111.3,112.7,248.7,112.7
		s248.7-50.4,248.7-112.7V414.3L448,493.8C432.7,499.9,416.5,503,400,503z"/>
	<path class="st0" d="M786.4,284.3l-352-139.5c-22.1-8.8-46.7-8.8-68.8,0l-352,139.5C5.4,287.6,0,295.5,0,304.4s5.4,16.8,13.6,20.1
		L62.9,344v139.7c-10.9,7.5-18.1,20-18.1,34.3c0,13,6,24.7,15.5,32.3l-15,72c-2,9.7,0.4,19.7,6.7,27.4c6.2,7.7,15.6,12.1,25.4,12.1
		h17.8c9.9,0,19.2-4.4,25.4-12.1c6.2-7.7,8.7-17.7,6.7-27.4l-15-72c9.4-7.6,15.5-19.2,15.5-32.3c0-14.2-7.2-26.8-18.1-34.3V362.5
		l254.9,101.1c22.8,9.1,48.3,9.1,71.1,0l350.8-139.1c8.2-3.3,13.6-11.2,13.6-20.1C800,295.5,794.6,287.6,786.4,284.3z"/>
</g>
</svg>
