<?xml version="1.0" encoding="utf-8"?>
<!-- Generator: Adobe Illustrator 27.0.1, SVG Export Plug-In . SVG Version: 6.00 Build 0)  -->
<svg version="1.1" id="Layer_1" xmlns="http://www.w3.org/2000/svg" xmlns:xlink="http://www.w3.org/1999/xlink" x="0px" y="0px"
	 viewBox="0 0 358.6 101.9" style="enable-background:new 0 0 358.6 101.9;" xml:space="preserve">
<style type="text/css">
	.st0{fill:#FFFFFF;}
</style>
<g>
	<g>
		<path class="st0" d="M23.9,73.8v-8.1h14.2v8.1h-2.2v18.7l1.1,1.1h5.3l1.1-1.1V73.8h-2.2v-8.1h14.2v8.1h-2.2v22.1l-5.7,5.8H31.8
			L26,95.9V73.8H23.9z M26.9,72.9v22.8l5.1,5.1h15.5l5-5V72.9h2.1v-6.4H42.2v6.4h2.2v19.7l-1.9,1.8h-5.7l-1.7-1.8V72.9h2.2v-6.4
			H24.8v6.4H26.9z M25.9,71.8v-4.1h10.2v4.1h-2.2v21.5l2.2,2.2h7l2.3-2.3V71.8h-2.2v-4.1h10.2v4.1h-2.2v23.1l-4.7,4.7H32.8L28,94.8
			v-23H25.9z"/>
		<path class="st0" d="M58.8,101.7v-8.1H61V73.8h-2.2v-8.1h11.7l9.9,16.5v-8.4h-2.2v-8.1h14.2v8.1h-2.2v19.8h2.2v8.1H80.5l-9.7-16.1
			v8H73v8.1H58.8z M72.1,100.8v-6.4h-2.2V82.5l11,18.4h10.6v-6.4h-2.2V72.9h2.2v-6.4H79.1v6.4h2.2v12.3L70.1,66.5H59.7v6.4h2.1v21.5
			h-2.1v6.4C59.7,100.8,72.1,100.8,72.1,100.8z M60.8,99.7v-4.1h2.1V71.8h-2.1v-4.1h8.3l13.3,22.1v-18h-2.2v-4.1h10.3v4.1h-2.2v23.7
			h2.2v4.1h-8.6l-13-21.7v17.6h2.2v4.1H60.8V99.7z"/>
		<path class="st0" d="M96.1,101.7v-8.1h2.2V73.8h-2.2v-8.1h14.2v8.1h-2.2v19.8h2.2v8.1H96.1z M109.4,100.8v-6.3h-2.2V72.9h2.2v-6.4
			H97v6.4h2.2v21.5H97v6.3L109.4,100.8L109.4,100.8z M98.1,99.7v-4.1h2.1V71.8h-2.1v-4.1h10.2v4.1h-2.2v23.7h2.2v4.1H98.1V99.7z"/>
		<path class="st0" d="M113.5,73.8v-8.1H128v8.1h-1.2l4,12l4-12h-1.2v-8.1h14.9v8.1h-3.2l-6.6,19.8h1.9v8.1h-19.2v-8.1h1.6
			l-6.6-19.8H113.5z M116.7,72.9l7.3,21.5h-1.7v6.4h17.4v-6.4h-2l7.4-21.5h2.6v-6.4h-13.2v6.4h1.3l-5,14.5l-5-14.5h1.3v-6.4h-12.7
			v6.4H116.7z M115.6,71.8v-4.1h10.5v4.1h-2l6.7,20.3l6.8-20.3h-2v-4.1h10.9v4.1h-2.6L136,95.5h2.6v4.1h-15.2v-4.1h2.3l-7.9-23.7
			H115.6z"/>
		<path class="st0" d="M152.1,101.7v-8.1h2.2V73.8h-2.2v-8.1h26.4v9.6h-8.1v-1.4h-6.3v5.7h1.4v-1.4h8.1v10.9h-8.1v-1.4h-1.4v5.9h6.3
			v-1.5h8.1v9.6H152.1z M177.6,100.8V93h-6.4v1.4h-8v-7.6h3.2v1.4h6.4v-9.1h-6.4v1.4h-3.2v-7.6h8v1.4h6.4v-7.8h-24.7v6.4h2.1v21.5
			h-2.1v6.4C152.9,100.8,177.6,100.8,177.6,100.8z M154.1,99.7v-4.1h2.1V71.8h-2.1v-4.1h22.5v5.6h-4.2v-1.4h-10.2v9.7h5.4v-1.4h4.1
			v7h-4.1v-1.4h-5.4v9.8h10.2v-1.4h4.2v5.6L154.1,99.7L154.1,99.7z"/>
		<path class="st0" d="M181.4,101.7v-8.1h2.2V73.8h-2.2v-8.1h22.3l5.8,5.8v9.3l-2.4,2.3l2.4,2.4v8.1h2.2v8.1h-12V88.1l-1.1-1.1h-5
			v6.6h2.2v8.1H181.4z M194.7,100.8v-6.4h-2.2v-8.2h6.3l1.6,1.6v13h10.2v-6.4h-2.1v-8.7l-2.7-2.8l2.7-2.8v-8.4l-5.2-5.2h-21v6.4h2.1
			v21.5h-2.1v6.4H194.7z M183.4,99.7v-4.1h2.1V71.8h-2.1v-4.1h19.3l4.7,4.7v7.2l-3.2,3.3l3.2,3.3v9.3h2.2v4.1h-8.1V87.3l-2.2-2.2
			h-7.8v10.4h2.2v4.1L183.4,99.7L183.4,99.7z M199.2,81l2.3-2.3v-4.8l-2.2-2.2h-7.8v9.2h7.7V81z M192.5,79.9V73h6l1.9,1.9v3.3
			l-1.9,1.8h-6V79.9z M198.4,79l1.2-1.1V75l-1.2-1.2h-4.9V79H198.4z"/>
		<path class="st0" d="M215.2,95.9V89h9.9v3.4l1.2,1.2h5.1l1.2-1.1V89l-1.1-1.1H221l-5.8-5.8V71.4l5.8-5.8h15.8l5.8,5.8v7.1h-9.9
			v-3.6l-1.1-1.1h-5.3l-1.1,1.1v3.7l1.1,1.1h10.6l5.8,5.8v10.4l-5.8,5.8h-15.8L215.2,95.9z M221.2,100.8h15.3l5.1-5.1V85.6l-5.1-5
			h-10.6l-1.7-1.8v-4.1l1.7-1.8h5.7l1.8,1.8v2.9h8.2v-6l-5.1-5.1h-15.4l-5.1,5.1v10.2l5.1,5.1h10.6l1.8,1.7v4l-1.9,1.8H226l-1.8-1.8
			v-2.7H216v5.8L221.2,100.8z M217.2,94.9v-4h5.9v2.4l2.2,2.2h7.1l2.2-2.3v-5.1l-2.3-2.3h-10.4l-4.8-4.8v-8.6l4.7-4.7h13.9l4.8,4.8
			v4.1h-6v-2.5l-2.3-2.3h-7L223,74v5.4l2.2,2.2h10.5l4.8,4.8v8.4l-4.7,4.7h-14L217.2,94.9z"/>
		<path class="st0" d="M245.4,101.7v-8.1h2.2V73.8h-2.2v-8.1h14.2v8.1h-2.2v19.8h2.2v8.1H245.4z M258.7,100.8v-6.3h-2.2V72.9h2.2
			v-6.4h-12.4v6.4h2.2v21.5h-2.2v6.3L258.7,100.8L258.7,100.8z M247.4,99.7v-4.1h2.1V71.8h-2.1v-4.1h10.2v4.1h-2.2v23.7h2.2v4.1
			h-10.2V99.7z"/>
		<path class="st0" d="M262.8,75.9V65.7h30.4v10.2h-8.1v-2.1H283v19.8h2.1v8.1h-14.2v-8.1h2.2V73.8h-2.2v2.1
			C270.9,75.9,262.8,75.9,262.8,75.9z M270,75.1v-2.2h3.9v21.5h-2.2v6.4h12.5v-6.4H282V72.9h3.9v2.2h6.3v-8.5h-28.5v8.5H270z
			 M264.8,74v-6.3h26.4V74H287v-2.2h-6.1v23.7h2.1v4.1h-10.2v-4.1h2.2V71.8h-6.2V74C268.8,74,264.8,74,264.8,74z"/>
		<path class="st0" d="M295.7,73.8v-8.1h17.1v8.1h-0.3l3.2,3.2l3.2-3.2h-0.4v-8.1h16.6v8.1h-2.9l-11.6,11.6v8.2h2.2v8.1h-14.1v-8.1
			h2.1v-8.2l-11.6-11.6C299.2,73.8,295.7,73.8,295.7,73.8z M299.5,72.9L311.6,85v9.4h-2.2v6.4h12.5v-6.4h-2.2V85l12.2-12.1h2.4v-6.4
			h-14.9v6.4h1.6l-5.3,5.3l-5.3-5.3h1.5v-6.4h-15.3v6.4H299.5z M297.7,71.8v-4.1h13.1v4.1h-3.1l8,8l8-8h-3.1v-4.1h12.6v4.1h-1.6
			l-13,12.8v10.9h2.2v4.5h-10.2v-4.5h2.2V84.6L300,71.8H297.7z"/>
	</g>
	<g>
		<g>
			<path class="st0" d="M128,36.2c0,3.1-0.5,5.9-1.6,8.5s-2.6,5-4.7,7c-2.1,2-4.5,3.6-7.2,4.6s-5.6,1.6-8.6,1.6
				c-3.1,0-6-0.5-8.7-1.6c-2.7-1-5.1-2.6-7.2-4.7c-2-2-3.6-4.3-4.7-6.9c-1-2.5-1.6-5.4-1.6-8.5s0.5-6,1.6-8.5c1.1-2.7,2.6-5,4.7-6.9
				c2.1-2,4.5-3.6,7.2-4.7c2.7-1.1,5.6-1.6,8.7-1.6s6,0.5,8.7,1.6c2.6,1.1,5,2.6,7.2,4.7c2,2.1,3.6,4.4,4.7,7
				C127.5,30.3,128,33.2,128,36.2z M105.8,44c2.1,0,3.7-0.7,5-2.1c1.3-1.4,1.9-3.3,1.9-5.7s-0.6-4.3-1.9-5.7s-3-2.1-5-2.1
				c-2.1,0-3.8,0.7-5.1,2.2c-1.3,1.5-1.9,3.4-1.9,5.7c0,2.4,0.6,4.3,1.9,5.7C102,43.3,103.7,44,105.8,44z"/>
			<path class="st0" d="M132,56.8V15.4h14.6l12.9,21.7c-0.2-0.9-0.3-2-0.4-3.2c-0.1-1.6-0.1-3.1-0.1-4.6V15.4h14.4v41.5h-14.7
				L146,35.3c0.1,1.2,0.2,2.2,0.3,3c0.1,1.1,0.1,2.3,0.1,3.6v15L132,56.8L132,56.8z"/>
			<path class="st0" d="M175.9,53.3l4.8-11.6c2,1.5,3.9,2.5,5.7,3.3c1.6,0.7,3.2,1,4.7,1c1,0,1.8-0.2,2.4-0.6
				c0.6-0.4,0.9-0.9,0.9-1.6c0-1.1-1.5-2-4.4-2.6c-1.1-0.2-1.8-0.4-2.2-0.5c-3.1-0.8-5.5-2.1-7.1-4c-1.7-1.9-2.5-4.3-2.5-7.2
				c0-4.4,1.6-8,4.8-10.9c3.2-2.8,7.3-4.2,12.5-4.2c2.3,0,4.7,0.3,7.1,0.9c2.3,0.7,4.7,1.6,6.9,2.8L205,28.9c-1.5-1.1-3-1.9-4.3-2.4
				c-1.4-0.6-2.8-0.8-4.2-0.8c-1,0-1.8,0.2-2.4,0.5c-0.6,0.3-0.8,0.8-0.8,1.4c0,1.2,2.1,2.2,6.2,3.1c0.8,0.2,1.3,0.3,1.5,0.4
				c2.8,0.6,5,1.9,6.7,3.9c1.6,2,2.4,4.4,2.4,7.2c0,4.6-1.7,8.3-5,11.2s-7.6,4.3-12.9,4.3c-2.8,0-5.5-0.4-8.1-1.2
				C181.5,56.1,178.8,54.9,175.9,53.3z"/>
			<path class="st0" d="M221.3,56.8V28.9H213V15.4h31.5v13.5h-8.3v27.9C236.2,56.8,221.3,56.8,221.3,56.8z"/>
			<path class="st0" d="M248.7,56.8V15.4h27.7v11.2h-13.1v4h11.9v10.6h-11.9v4.4h13.4v11.2H248.7z"/>
			<path class="st0" d="M281,56.8V15.4h18.8c5.4,0,9.6,1.2,12.5,3.6s4.3,5.9,4.3,10.4c0,2.9-0.7,5.4-2.2,7.3c-1.4,1.9-3.4,3-5.8,3.3
				l11.1,16.9H303l-7.3-13.8v13.7H281z M295.7,26v8.1h2.3c1.4,0,2.5-0.3,3.3-1s1.2-1.7,1.2-3s-0.4-2.3-1.2-3.1
				c-0.8-0.7-1.9-1.1-3.3-1.1L295.7,26L295.7,26z"/>
			<path class="st0" d="M321.9,53.3l4.8-11.6c2,1.5,3.9,2.5,5.7,3.3c1.6,0.7,3.2,1,4.7,1c1,0,1.8-0.2,2.4-0.6
				c0.6-0.4,0.9-0.9,0.9-1.6c0-1.1-1.5-2-4.4-2.6c-1.1-0.2-1.8-0.4-2.2-0.5c-3.1-0.8-5.5-2.1-7.1-4c-1.7-1.9-2.5-4.3-2.5-7.2
				c0-4.4,1.6-8,4.8-10.9c3.2-2.8,7.3-4.2,12.5-4.2c2.3,0,4.7,0.3,7.1,0.9c2.3,0.7,4.7,1.6,6.9,2.8L351,28.9c-1.5-1.1-3-1.9-4.3-2.4
				c-1.4-0.6-2.8-0.8-4.2-0.8c-1,0-1.8,0.2-2.4,0.5s-0.8,0.8-0.8,1.4c0,1.2,2.1,2.2,6.2,3.1c0.8,0.2,1.3,0.3,1.5,0.4
				c2.8,0.6,5,1.9,6.7,3.9c1.6,2,2.4,4.4,2.4,7.2c0,4.6-1.7,8.3-5,11.2s-7.6,4.3-12.9,4.3c-2.8,0-5.5-0.4-8.1-1.2
				C327.5,56.1,324.8,54.9,321.9,53.3z"/>
		</g>
		<g>
			<path class="st0" d="M62.9,58l-3.4-15.6L50.1,58H37.7l-9.3-15.6L25,58H4.4l9.9-58.4h21.6l8,12.6h0.4l8.3-12.6h21.6l9.3,58.3H62.9
				V58z M68.8,27.8c-1.5-1.9-3.3-3.5-5.3-4.9C58.4,19.6,52,18,44.4,18s-13.9,1.6-19.1,4.9c-2.1,1.3-3.9,2.9-5.4,4.9
				c1.6,2,3.4,3.6,5.4,4.8c5,3.2,11.4,4.8,19.1,4.8c7.6,0,14-1.6,19.1-4.8C65.5,31.3,67.3,29.7,68.8,27.8z M44.4,20.3
				c2,0,3.7,0.7,5.2,2.2s2.2,3.2,2.2,5.2c0,2.1-0.7,3.9-2.2,5.3c-1.5,1.5-3.2,2.2-5.2,2.2c-2.1,0-3.8-0.7-5.2-2.2
				c-1.4-1.5-2.1-3.2-2.1-5.3c0-2,0.7-3.8,2.1-5.2C40.6,21,42.3,20.3,44.4,20.3z"/>
		</g>
	</g>
</g>
</svg>
