<?xml version="1.0" encoding="utf-8"?>
<!-- Generator: Adobe Illustrator 27.0.1, SVG Export Plug-In . SVG Version: 6.00 Build 0)  -->
<svg version="1.1" id="Layer_1" xmlns="http://www.w3.org/2000/svg" xmlns:xlink="http://www.w3.org/1999/xlink" x="0px" y="0px"
	 viewBox="0 0 390 107" style="enable-background:new 0 0 390 107;" xml:space="preserve">
<style type="text/css">
	.st0{fill:#FFFFFF;stroke:#F1F1F1;stroke-miterlimit:10;}
	.st1{fill:#FFFFFF;}
</style>
<line class="st0" x1="388.1" y1="20.5" x2="388.1" y2="107"/>
<g>
	<g>
		<path class="st1" d="M29.2,79.2v-8.1h14.2v8.1h-2.2v18.7l1.1,1.1h5.3l1.1-1.1V79.2h-2.2v-8.1h14.2v8.1h-2.2v22.1l-5.7,5.8H37.1
			l-5.8-5.8V79.2H29.2z M32.2,78.3v22.8l5.1,5.1h15.5l5-5V78.3h2.1v-6.4H47.5v6.4h2.2V98l-1.9,1.8h-5.7L40.4,98V78.3h2.2v-6.4H30.1
			v6.4H32.2z M31.2,77.2v-4.1h10.2v4.1h-2.2v21.5l2.2,2.2h7l2.3-2.3V77.2h-2.2v-4.1h10.2v4.1h-2.2v23.1l-4.7,4.7H38.1l-4.8-4.8V77.2
			H31.2z"/>
		<path class="st1" d="M64.1,107.1V99h2.2V79.2h-2.2v-8.1h11.7l9.9,16.5v-8.4h-2.2v-8.1h14.2v8.1h-2.2V99h2.2v8.1H85.8L76.1,91v8
			h2.2v8.1H64.1z M77.4,106.2v-6.4h-2.2V87.9l11,18.4h10.6v-6.4h-2.2V78.3h2.2v-6.4H84.4v6.4h2.2v12.3L75.4,71.9H65v6.4h2.1v21.5H65
			v6.4H77.4z M66.1,105.1v-4.1h2.1V77.2h-2.1v-4.1h8.3l13.3,22.1v-18h-2.2v-4.1h10.3v4.1h-2.2v23.7h2.2v4.1h-8.6l-13-21.7v17.6h2.2
			v4.1H66.1z"/>
		<path class="st1" d="M101.4,107.1V99h2.2V79.2h-2.2v-8.1h14.2v8.1h-2.2V99h2.2v8.1H101.4z M114.7,106.2v-6.3h-2.2V78.3h2.2v-6.4
			h-12.4v6.4h2.2v21.5h-2.2v6.3H114.7z M103.4,105.1v-4.1h2.1V77.2h-2.1v-4.1h10.2v4.1h-2.2v23.7h2.2v4.1H103.4z"/>
		<path class="st1" d="M118.8,79.2v-8.1h14.5v8.1h-1.2l4,12l4-12h-1.2v-8.1h14.9v8.1h-3.2L144,99h1.9v8.1h-19.2V99h1.6l-6.6-19.8
			H118.8z M122,78.3l7.3,21.5h-1.7v6.4H145v-6.4h-2l7.4-21.5h2.6v-6.4h-13.2v6.4h1.3l-5,14.5l-5-14.5h1.3v-6.4h-12.7v6.4H122z
			 M120.9,77.2v-4.1h10.5v4.1h-2l6.7,20.3l6.8-20.3h-2v-4.1h10.9v4.1h-2.6l-7.9,23.7h2.6v4.1h-15.2v-4.1h2.3l-7.9-23.7H120.9z"/>
		<path class="st1" d="M157.4,107.1V99h2.2V79.2h-2.2v-8.1h26.4v9.6h-8.1v-1.4h-6.3V85h1.4v-1.4h8.1v10.9h-8.1v-1.4h-1.4V99h6.3
			v-1.5h8.1v9.6H157.4z M182.9,106.2v-7.8h-6.4v1.4h-8v-7.6h3.2v1.4h6.4v-9.1h-6.4v1.4h-3.2v-7.6h8v1.4h6.4v-7.8h-24.7v6.4h2.1v21.5
			h-2.1v6.4H182.9z M159.4,105.1v-4.1h2.1V77.2h-2.1v-4.1h22.5v5.6h-4.2v-1.4h-10.2V87h5.4v-1.4h4.1v7h-4.1v-1.4h-5.4v9.8h10.2v-1.4
			h4.2v5.6H159.4z"/>
		<path class="st1" d="M186.7,107.1V99h2.2V79.2h-2.2v-8.1H209l5.8,5.8v9.3l-2.4,2.3l2.4,2.4V99h2.2v8.1h-12V93.5l-1.1-1.1h-5V99
			h2.2v8.1H186.7z M200,106.2v-6.4h-2.2v-8.2h6.3l1.6,1.6v13h10.2v-6.4h-2.1v-8.7l-2.7-2.8l2.7-2.8v-8.4l-5.2-5.2h-21v6.4h2.1v21.5
			h-2.1v6.4H200z M188.7,105.1v-4.1h2.1V77.2h-2.1v-4.1H208l4.7,4.7v7.2l-3.2,3.3l3.2,3.3v9.3h2.2v4.1h-8.1V92.7l-2.2-2.2h-7.8v10.4
			h2.2v4.1H188.7z M204.5,86.4l2.3-2.3v-4.8l-2.2-2.2h-7.8v9.2H204.5z M197.8,85.3v-6.9h6l1.9,1.9v3.3l-1.9,1.8H197.8z M203.7,84.4
			l1.2-1.1v-2.9l-1.2-1.2h-4.9v5.2H203.7z"/>
		<path class="st1" d="M220.5,101.3v-6.9h9.9v3.4l1.2,1.2h5.1l1.2-1.1v-3.5l-1.1-1.1h-10.5l-5.8-5.8V76.8l5.8-5.8h15.8l5.8,5.8v7.1
			h-9.9v-3.6l-1.1-1.1h-5.3l-1.1,1.1V84l1.1,1.1h10.6l5.8,5.8v10.4l-5.8,5.8h-15.8L220.5,101.3z M226.5,106.2h15.3l5.1-5.1V91
			l-5.1-5h-10.6l-1.7-1.8v-4.1l1.7-1.8h5.7l1.8,1.8v2.9h8.2v-6l-5.1-5.1h-15.4l-5.1,5.1v10.2l5.1,5.1H237l1.8,1.7V98l-1.9,1.8h-5.6
			l-1.8-1.8v-2.7h-8.2v5.8L226.5,106.2z M222.5,100.3v-4h5.9v2.4l2.2,2.2h7.1l2.2-2.3v-5.1l-2.3-2.3h-10.4l-4.8-4.8v-8.6l4.7-4.7
			h13.9l4.8,4.8V82h-6v-2.5l-2.3-2.3h-7l-2.2,2.2v5.4l2.2,2.2h10.5l4.8,4.8v8.4l-4.7,4.7h-14L222.5,100.3z"/>
		<path class="st1" d="M250.7,107.1V99h2.2V79.2h-2.2v-8.1h14.2v8.1h-2.2V99h2.2v8.1H250.7z M264,106.2v-6.3h-2.2V78.3h2.2v-6.4
			h-12.4v6.4h2.2v21.5h-2.2v6.3H264z M252.7,105.1v-4.1h2.1V77.2h-2.1v-4.1h10.2v4.1h-2.2v23.7h2.2v4.1H252.7z"/>
		<path class="st1" d="M268.1,81.3V71.1h30.4v10.2h-8.1v-2.1h-2.1V99h2.1v8.1h-14.2V99h2.2V79.2h-2.2v2.1H268.1z M275.3,80.5v-2.2
			h3.9v21.5h-2.2v6.4h12.5v-6.4h-2.2V78.3h3.9v2.2h6.3v-8.5H269v8.5H275.3z M270.1,79.4v-6.3h26.4v6.3h-4.2v-2.2h-6.1v23.7h2.1v4.1
			h-10.2v-4.1h2.2V77.2h-6.2v2.2H270.1z"/>
		<path class="st1" d="M301,79.2v-8.1h17.1v8.1h-0.3l3.2,3.2l3.2-3.2h-0.4v-8.1h16.6v8.1h-2.9l-11.6,11.6V99h2.2v8.1h-14.1V99h2.1
			v-8.2l-11.6-11.6H301z M304.8,78.3l12.1,12.1v9.4h-2.2v6.4h12.5v-6.4H325v-9.4l12.2-12.1h2.4v-6.4h-14.9v6.4h1.6l-5.3,5.3
			l-5.3-5.3h1.5v-6.4h-15.3v6.4H304.8z M303,77.2v-4.1h13.1v4.1h-3.1l8,8l8-8h-3.1v-4.1h12.6v4.1h-1.6L323.9,90v10.9h2.2v4.5h-10.2
			v-4.5h2.2V90l-12.8-12.8H303z"/>
	</g>
	<g>
		<g>
			<path class="st1" d="M133.3,41.6c0,3.1-0.5,5.9-1.6,8.5c-1.1,2.6-2.6,5-4.7,7c-2.1,2-4.5,3.6-7.2,4.6s-5.6,1.6-8.6,1.6
				c-3.1,0-6-0.5-8.7-1.6c-2.7-1-5.1-2.6-7.2-4.7c-2-2-3.6-4.3-4.7-6.9c-1-2.5-1.6-5.4-1.6-8.5c0-3.1,0.5-6,1.6-8.5
				c1.1-2.7,2.6-5,4.7-6.9c2.1-2,4.5-3.6,7.2-4.7c2.7-1.1,5.6-1.6,8.7-1.6c3.1,0,6,0.5,8.7,1.6c2.6,1.1,5,2.6,7.2,4.7
				c2,2.1,3.6,4.4,4.7,7C132.8,35.7,133.3,38.6,133.3,41.6z M111.1,49.4c2.1,0,3.7-0.7,5-2.1c1.3-1.4,1.9-3.3,1.9-5.7
				s-0.6-4.3-1.9-5.7c-1.3-1.4-3-2.1-5-2.1c-2.1,0-3.8,0.7-5.1,2.2c-1.3,1.5-1.9,3.4-1.9,5.7c0,2.4,0.6,4.3,1.9,5.7
				C107.3,48.7,109,49.4,111.1,49.4z"/>
			<path class="st1" d="M137.3,62.2V20.8h14.6l12.9,21.7c-0.2-0.9-0.3-2-0.4-3.2c-0.1-1.6-0.1-3.1-0.1-4.6V20.8h14.4v41.5H164
				l-12.7-21.6c0.1,1.2,0.2,2.2,0.3,3c0.1,1.1,0.1,2.3,0.1,3.6v15H137.3z"/>
			<path class="st1" d="M181.2,58.7l4.8-11.6c2,1.5,3.9,2.5,5.7,3.3c1.6,0.7,3.2,1,4.7,1c1,0,1.8-0.2,2.4-0.6
				c0.6-0.4,0.9-0.9,0.9-1.6c0-1.1-1.5-2-4.4-2.6c-1.1-0.2-1.8-0.4-2.2-0.5c-3.1-0.8-5.5-2.1-7.1-4c-1.7-1.9-2.5-4.3-2.5-7.2
				c0-4.4,1.6-8,4.8-10.9c3.2-2.8,7.3-4.2,12.5-4.2c2.3,0,4.7,0.3,7.1,0.9c2.3,0.7,4.7,1.6,6.9,2.8l-4.5,10.8
				c-1.5-1.1-3-1.9-4.3-2.4c-1.4-0.6-2.8-0.8-4.2-0.8c-1,0-1.8,0.2-2.4,0.5c-0.6,0.3-0.8,0.8-0.8,1.4c0,1.2,2.1,2.2,6.2,3.1
				c0.8,0.2,1.3,0.3,1.5,0.4c2.8,0.6,5,1.9,6.7,3.9c1.6,2,2.4,4.4,2.4,7.2c0,4.6-1.7,8.3-5,11.2c-3.3,2.9-7.6,4.3-12.9,4.3
				c-2.8,0-5.5-0.4-8.1-1.2C186.8,61.5,184.1,60.3,181.2,58.7z"/>
			<path class="st1" d="M226.6,62.2V34.3h-8.3V20.8h31.5v13.5h-8.3v27.9H226.6z"/>
			<path class="st1" d="M254,62.2V20.8h27.7V32h-13.1v4h11.9v10.6h-11.9V51H282v11.2H254z"/>
			<path class="st1" d="M286.3,62.2V20.8h18.8c5.4,0,9.6,1.2,12.5,3.6c2.9,2.4,4.3,5.9,4.3,10.4c0,2.9-0.7,5.4-2.2,7.3
				c-1.4,1.9-3.4,3-5.8,3.3l11.1,16.9h-16.7L301,48.5v13.7H286.3z M301,31.4v8.1h2.3c1.4,0,2.5-0.3,3.3-1c0.8-0.7,1.2-1.7,1.2-3
				c0-1.3-0.4-2.3-1.2-3.1c-0.8-0.7-1.9-1.1-3.3-1.1H301z"/>
			<path class="st1" d="M327.2,58.7l4.8-11.6c2,1.5,3.9,2.5,5.7,3.3c1.6,0.7,3.2,1,4.7,1c1,0,1.8-0.2,2.4-0.6
				c0.6-0.4,0.9-0.9,0.9-1.6c0-1.1-1.5-2-4.4-2.6c-1.1-0.2-1.8-0.4-2.2-0.5c-3.1-0.8-5.5-2.1-7.1-4c-1.7-1.9-2.5-4.3-2.5-7.2
				c0-4.4,1.6-8,4.8-10.9c3.2-2.8,7.3-4.2,12.5-4.2c2.3,0,4.7,0.3,7.1,0.9c2.3,0.7,4.7,1.6,6.9,2.8l-4.5,10.8
				c-1.5-1.1-3-1.9-4.3-2.4c-1.4-0.6-2.8-0.8-4.2-0.8c-1,0-1.8,0.2-2.4,0.5c-0.6,0.3-0.8,0.8-0.8,1.4c0,1.2,2.1,2.2,6.2,3.1
				c0.8,0.2,1.3,0.3,1.5,0.4c2.8,0.6,5,1.9,6.7,3.9c1.6,2,2.4,4.4,2.4,7.2c0,4.6-1.7,8.3-5,11.2c-3.3,2.9-7.6,4.3-12.9,4.3
				c-2.8,0-5.5-0.4-8.1-1.2C332.8,61.5,330.1,60.3,327.2,58.7z"/>
		</g>
		<g>
			<path class="st1" d="M68.2,63.4l-3.4-15.6l-9.4,15.6H43l-9.3-15.6l-3.4,15.6H9.7L19.6,5h21.6l8,12.6h0.4L57.9,5h21.6l9.3,58.3
				H68.2z M74.1,33.2c-1.5-1.9-3.3-3.5-5.3-4.9c-5.1-3.3-11.5-4.9-19.1-4.9c-7.6,0-13.9,1.6-19.1,4.9c-2.1,1.3-3.9,2.9-5.4,4.9
				c1.6,2,3.4,3.6,5.4,4.8c5,3.2,11.4,4.8,19.1,4.8c7.6,0,14-1.6,19.1-4.8C70.8,36.7,72.6,35.1,74.1,33.2z M49.7,25.7
				c2,0,3.7,0.7,5.2,2.2c1.5,1.5,2.2,3.2,2.2,5.2c0,2.1-0.7,3.9-2.2,5.3c-1.5,1.5-3.2,2.2-5.2,2.2c-2.1,0-3.8-0.7-5.2-2.2
				c-1.4-1.5-2.1-3.2-2.1-5.3c0-2,0.7-3.8,2.1-5.2C45.9,26.4,47.6,25.7,49.7,25.7z"/>
		</g>
	</g>
</g>
</svg>
