<?xml version="1.0" encoding="utf-8"?>
<!-- Generator: Adobe Illustrator 27.0.1, SVG Export Plug-In . SVG Version: 6.00 Build 0)  -->
<svg version="1.1" id="Layer_1" xmlns="http://www.w3.org/2000/svg" xmlns:xlink="http://www.w3.org/1999/xlink" x="0px" y="0px"
	 viewBox="0 0 507 217" style="enable-background:new 0 0 507 217;" xml:space="preserve">
<style type="text/css">
	.st0{fill:#FFFFFF;stroke:#F1F1F1;stroke-miterlimit:10;}
	.st1{fill:#FFFFFF;}
</style>
<line class="st0" x1="428.1" y1="65.5" x2="428.1" y2="152"/>
<g>
	<g>
		<path class="st1" d="M69.2,124.2v-8.1h14.2v8.1h-2.2v18.7l1.1,1.1h5.3l1.1-1.1v-18.7h-2.2v-8.1h14.2v8.1h-2.2v22.1l-5.7,5.8H77.1
			l-5.8-5.8v-22.1H69.2z M72.2,123.3v22.8l5.1,5.1h15.5l5-5v-22.8h2.1v-6.4H87.5v6.4h2.2V143l-1.9,1.8h-5.7l-1.9-1.9v-19.6h2.2v-6.4
			H70.1v6.4H72.2z M71.2,122.2v-4.1h10.2v4.1h-2.2v21.5l2.2,2.2h7l2.3-2.3v-21.5h-2.2v-4.1h10.2v4.1h-2.2v23.1l-4.7,4.7H78.1
			l-4.8-4.8v-23.1H71.2z"/>
		<path class="st1" d="M104.1,152.1V144h2.2v-19.8h-2.2v-8.1h11.7l9.9,16.5v-8.4h-2.2v-8.1h14.2v8.1h-2.2V144h2.2v8.1h-11.9
			l-9.7-16.1v8h2.2v8.1H104.1z M117.4,151.2v-6.4h-2.2v-11.9l11,18.4h10.6v-6.4h-2.2v-21.5h2.2v-6.4h-12.4v6.4h2.2v12.3l-11.2-18.7
			H105v6.4h2.1v21.5H105v6.4H117.4z M106.1,150.1v-4.1h2.1v-23.7h-2.1v-4.1h8.3l13.3,22.1v-18h-2.2v-4.1h10.3v4.1h-2.2v23.7h2.2v4.1
			h-8.6l-13-21.7v17.6h2.2v4.1H106.1z"/>
		<path class="st1" d="M141.4,152.1V144h2.2v-19.8h-2.2v-8.1h14.2v8.1h-2.2V144h2.2v8.1H141.4z M154.7,151.2v-6.3h-2.2v-21.5h2.2
			v-6.4h-12.4v6.4h2.2v21.5h-2.2v6.3H154.7z M143.4,150.1v-4.1h2.1v-23.7h-2.1v-4.1h10.2v4.1h-2.2v23.7h2.2v4.1H143.4z"/>
		<path class="st1" d="M158.8,124.2v-8.1h14.5v8.1h-1.2l4,12l4-12h-1.2v-8.1h14.9v8.1h-3.2L184,144h1.9v8.1h-19.2V144h1.6l-6.6-19.8
			H158.8z M162,123.3l7.3,21.5h-1.7v6.4H185v-6.4h-2l7.4-21.5h2.6v-6.4h-13.2v6.4h1.3l-5,14.5l-5-14.5h1.3v-6.4h-12.7v6.4H162z
			 M160.9,122.2v-4.1h10.5v4.1h-2l6.7,20.3l6.8-20.3h-2v-4.1h10.9v4.1h-2.6l-7.9,23.7h2.6v4.1h-15.2v-4.1h2.3l-7.9-23.7H160.9z"/>
		<path class="st1" d="M197.4,152.1V144h2.2v-19.8h-2.2v-8.1h26.4v9.6h-8.1v-1.4h-6.3v5.8h1.4v-1.4h8.1v10.9h-8.1v-1.4h-1.4v5.9h6.3
			v-1.5h8.1v9.6H197.4z M222.9,151.2v-7.8h-6.4v1.4h-8v-7.6h3.2v1.4h6.4v-9.1h-6.4v1.4h-3.2v-7.6h8v1.4h6.4v-7.8h-24.7v6.4h2.1v21.5
			h-2.1v6.4H222.9z M199.4,150.1v-4.1h2.1v-23.7h-2.1v-4.1h22.5v5.6h-4.2v-1.4h-10.2v9.8h5.4v-1.4h4.1v7h-4.1v-1.4h-5.4v9.8h10.2
			v-1.4h4.2v5.6H199.4z"/>
		<path class="st1" d="M226.7,152.1V144h2.2v-19.8h-2.2v-8.1H249l5.8,5.8v9.3l-2.4,2.3l2.4,2.4v8.2h2.2v8.1h-12v-13.5l-1.1-1.1h-5
			v6.5h2.2v8.1H226.7z M240,151.2v-6.4h-2.2v-8.2h6.3l1.6,1.6v13h10.2v-6.4h-2.1v-8.7l-2.7-2.8l2.7-2.8v-8.4l-5.2-5.2h-21v6.4h2.1
			v21.5h-2.1v6.4H240z M228.7,150.1v-4.1h2.1v-23.7h-2.1v-4.1H248l4.7,4.7v7.2l-3.2,3.3l3.2,3.3v9.3h2.2v4.1h-8.1v-12.3l-2.2-2.2
			h-7.8v10.4h2.2v4.1H228.7z M244.5,131.4l2.3-2.3v-4.8l-2.2-2.2h-7.8v9.2H244.5z M237.8,130.3v-6.9h6l1.9,1.9v3.3l-1.9,1.8H237.8z
			 M243.7,129.4l1.2-1.1v-2.9l-1.2-1.2h-4.9v5.2H243.7z"/>
		<path class="st1" d="M260.5,146.3v-6.9h9.9v3.4l1.2,1.2h5.1l1.2-1.1v-3.5l-1.1-1.1h-10.5l-5.8-5.8v-10.6l5.8-5.8h15.8l5.8,5.8v7.1
			h-9.9v-3.6l-1.1-1.1h-5.3l-1.1,1.1v3.6l1.1,1.1h10.6l5.8,5.8v10.4l-5.8,5.8h-15.8L260.5,146.3z M266.5,151.2h15.3l5.1-5.1V136
			l-5.1-5h-10.6l-1.7-1.8v-4.1l1.7-1.8h5.7l1.8,1.8v2.9h8.2v-6l-5.1-5.1h-15.4l-5.1,5.1v10.2l5.1,5.1H277l1.8,1.7v3.9l-1.9,1.8h-5.6
			l-1.8-1.8v-2.7h-8.2v5.8L266.5,151.2z M262.5,145.3v-4h5.9v2.4l2.2,2.2h7.1l2.2-2.3v-5.1l-2.3-2.3h-10.4l-4.8-4.8v-8.6l4.7-4.7
			h13.9l4.8,4.8v4.1h-6v-2.5l-2.3-2.3h-7l-2.2,2.2v5.4l2.2,2.2h10.5l4.8,4.8v8.4l-4.7,4.7h-14L262.5,145.3z"/>
		<path class="st1" d="M290.7,152.1V144h2.2v-19.8h-2.2v-8.1h14.2v8.1h-2.2V144h2.2v8.1H290.7z M304,151.2v-6.3h-2.2v-21.5h2.2v-6.4
			h-12.4v6.4h2.2v21.5h-2.2v6.3H304z M292.7,150.1v-4.1h2.1v-23.7h-2.1v-4.1h10.2v4.1h-2.2v23.7h2.2v4.1H292.7z"/>
		<path class="st1" d="M308.1,126.3v-10.2h30.4v10.2h-8.1v-2.1h-2.1V144h2.1v8.1h-14.2V144h2.2v-19.8h-2.2v2.1H308.1z M315.3,125.5
			v-2.2h3.9v21.5h-2.2v6.4h12.5v-6.4h-2.2v-21.5h3.9v2.2h6.3v-8.5H309v8.5H315.3z M310.1,124.4v-6.3h26.4v6.3h-4.2v-2.2h-6.1v23.7
			h2.1v4.1h-10.2v-4.1h2.2v-23.7h-6.2v2.2H310.1z"/>
		<path class="st1" d="M341,124.2v-8.1h17.1v8.1h-0.3l3.2,3.2l3.2-3.2h-0.4v-8.1h16.6v8.1h-2.9l-11.6,11.6v8.2h2.2v8.1h-14.1V144
			h2.1v-8.2l-11.6-11.6H341z M344.8,123.3l12.1,12.1v9.4h-2.2v6.4h12.5v-6.4H365v-9.4l12.2-12.1h2.4v-6.4h-14.9v6.4h1.6l-5.3,5.3
			l-5.3-5.3h1.5v-6.4h-15.3v6.4H344.8z M343,122.2v-4.1h13.1v4.1h-3.1l8,8l8-8h-3.1v-4.1h12.6v4.1h-1.6L363.9,135v10.9h2.2v4.5
			h-10.2v-4.5h2.2V135l-12.8-12.8H343z"/>
	</g>
	<g>
		<g>
			<path class="st1" d="M173.3,86.6c0,3.1-0.5,5.9-1.6,8.5c-1.1,2.6-2.6,5-4.7,7c-2.1,2-4.5,3.6-7.2,4.6s-5.6,1.6-8.6,1.6
				c-3.1,0-6-0.5-8.7-1.6c-2.7-1-5.1-2.6-7.2-4.7c-2-2-3.6-4.3-4.7-6.9c-1-2.5-1.6-5.4-1.6-8.5c0-3.1,0.5-6,1.6-8.5
				c1.1-2.7,2.6-5,4.7-6.9c2.1-2,4.5-3.6,7.2-4.7c2.7-1.1,5.6-1.6,8.7-1.6c3.1,0,6,0.5,8.7,1.6c2.6,1.1,5,2.6,7.2,4.7
				c2,2.1,3.6,4.4,4.7,7C172.8,80.7,173.3,83.6,173.3,86.6z M151.1,94.4c2.1,0,3.7-0.7,5-2.1c1.3-1.4,1.9-3.3,1.9-5.7
				s-0.6-4.3-1.9-5.7c-1.3-1.4-3-2.1-5-2.1c-2.1,0-3.8,0.7-5.1,2.2c-1.3,1.5-1.9,3.4-1.9,5.7c0,2.4,0.6,4.3,1.9,5.7
				C147.3,93.7,149,94.4,151.1,94.4z"/>
			<path class="st1" d="M177.3,107.2V65.8h14.6l12.9,21.7c-0.2-0.9-0.3-2-0.4-3.2c-0.1-1.6-0.1-3.1-0.1-4.6V65.8h14.4v41.5H204
				l-12.7-21.6c0.1,1.2,0.2,2.2,0.3,3c0.1,1.1,0.1,2.3,0.1,3.6v15H177.3z"/>
			<path class="st1" d="M221.2,103.7l4.8-11.6c2,1.5,3.9,2.5,5.7,3.3c1.6,0.7,3.2,1,4.7,1c1,0,1.8-0.2,2.4-0.6
				c0.6-0.4,0.9-0.9,0.9-1.6c0-1.1-1.5-2-4.4-2.6c-1.1-0.2-1.8-0.4-2.2-0.5c-3.1-0.8-5.5-2.1-7.1-4c-1.7-1.9-2.5-4.3-2.5-7.2
				c0-4.4,1.6-8,4.8-10.9c3.2-2.8,7.3-4.2,12.5-4.2c2.3,0,4.7,0.3,7.1,0.9c2.3,0.7,4.7,1.6,6.9,2.8l-4.5,10.8
				c-1.5-1.1-3-1.9-4.3-2.4c-1.4-0.6-2.8-0.8-4.2-0.8c-1,0-1.8,0.2-2.4,0.5c-0.6,0.3-0.8,0.8-0.8,1.4c0,1.2,2.1,2.2,6.2,3.1
				c0.8,0.2,1.3,0.3,1.5,0.4c2.8,0.6,5,1.9,6.7,3.9c1.6,2,2.4,4.4,2.4,7.2c0,4.6-1.7,8.3-5,11.2c-3.3,2.9-7.6,4.3-12.9,4.3
				c-2.8,0-5.5-0.4-8.1-1.2C226.8,106.5,224.1,105.3,221.2,103.7z"/>
			<path class="st1" d="M266.6,107.2V79.3h-8.3V65.8h31.5v13.5h-8.3v27.9H266.6z"/>
			<path class="st1" d="M294,107.2V65.8h27.7V77h-13.1v4h11.9v10.6h-11.9V96H322v11.2H294z"/>
			<path class="st1" d="M326.3,107.2V65.8h18.8c5.4,0,9.6,1.2,12.5,3.6c2.9,2.4,4.3,5.9,4.3,10.4c0,2.9-0.7,5.4-2.2,7.3
				c-1.4,1.9-3.4,3-5.8,3.3l11.1,16.9h-16.7L341,93.5v13.7H326.3z M341,76.4v8.1h2.3c1.4,0,2.5-0.3,3.3-1c0.8-0.7,1.2-1.7,1.2-3
				c0-1.3-0.4-2.3-1.2-3.1c-0.8-0.7-1.9-1.1-3.3-1.1H341z"/>
			<path class="st1" d="M367.2,103.7l4.8-11.6c2,1.5,3.9,2.5,5.7,3.3c1.6,0.7,3.2,1,4.7,1c1,0,1.8-0.2,2.4-0.6
				c0.6-0.4,0.9-0.9,0.9-1.6c0-1.1-1.5-2-4.4-2.6c-1.1-0.2-1.8-0.4-2.2-0.5c-3.1-0.8-5.5-2.1-7.1-4c-1.7-1.9-2.5-4.3-2.5-7.2
				c0-4.4,1.6-8,4.8-10.9c3.2-2.8,7.3-4.2,12.5-4.2c2.3,0,4.7,0.3,7.1,0.9c2.3,0.7,4.7,1.6,6.9,2.8l-4.5,10.8
				c-1.5-1.1-3-1.9-4.3-2.4c-1.4-0.6-2.8-0.8-4.2-0.8c-1,0-1.8,0.2-2.4,0.5c-0.6,0.3-0.8,0.8-0.8,1.4c0,1.2,2.1,2.2,6.2,3.1
				c0.8,0.2,1.3,0.3,1.5,0.4c2.8,0.6,5,1.9,6.7,3.9c1.6,2,2.4,4.4,2.4,7.2c0,4.6-1.7,8.3-5,11.2c-3.3,2.9-7.6,4.3-12.9,4.3
				c-2.8,0-5.5-0.4-8.1-1.2C372.8,106.5,370.1,105.3,367.2,103.7z"/>
		</g>
		<g>
			<path class="st1" d="M108.2,108.4l-3.4-15.6l-9.4,15.6H83l-9.3-15.6l-3.4,15.6H49.7L59.6,50h21.6l8,12.6h0.4L97.9,50h21.6
				l9.3,58.3H108.2z M114.1,78.2c-1.5-1.9-3.3-3.5-5.3-4.9c-5.1-3.3-11.5-4.9-19.1-4.9c-7.6,0-13.9,1.6-19.1,4.9
				c-2.1,1.3-3.9,2.9-5.4,4.9c1.6,2,3.4,3.6,5.4,4.8c5,3.2,11.4,4.8,19.1,4.8c7.6,0,14-1.6,19.1-4.8
				C110.8,81.7,112.6,80.1,114.1,78.2z M89.7,70.7c2,0,3.7,0.7,5.2,2.2c1.5,1.5,2.2,3.2,2.2,5.2c0,2.1-0.7,3.9-2.2,5.3
				c-1.5,1.5-3.2,2.2-5.2,2.2c-2.1,0-3.8-0.7-5.2-2.2c-1.4-1.5-2.1-3.2-2.1-5.3c0-2,0.7-3.8,2.1-5.2C85.9,71.4,87.6,70.7,89.7,70.7z
				"/>
		</g>
	</g>
</g>
</svg>
