<?xml version="1.0" encoding="utf-8"?>
<!-- Generator: Adobe Illustrator 27.0.1, SVG Export Plug-In . SVG Version: 6.00 Build 0)  -->
<svg version="1.1" id="Layer_1" xmlns="http://www.w3.org/2000/svg" xmlns:xlink="http://www.w3.org/1999/xlink" x="0px" y="0px"
	 viewBox="0 0 800 800" style="enable-background:new 0 0 800 800;" xml:space="preserve">
<style type="text/css">
	.st0{fill:#D8EC9B;}
	.st1{fill:#47670D;}
</style>
<path class="st0" d="M587.5,800h-375C95.6,800,0,704.4,0,587.5v-375C0,95.6,95.6,0,212.5,0h375C704.4,0,800,95.6,800,212.5v375
	C800,704.4,704.4,800,587.5,800z"/>
<g>
	<path class="st1" d="M606.3,196.7H180.4c-16.8,0-30.4,13.6-30.4,30.4v258.5h485.3c0.5,0,0.9,0.2,1.4,0.2V227.1
		C636.7,210.3,623.1,196.7,606.3,196.7z"/>
	<path class="st1" d="M150,500.8v30.4c0,16.8,13.6,30.4,30.4,30.4h182.5v76h-60.8c-16.8,0-30.4,13.6-30.4,30.4v7.6
		c0,4.2,3.4,7.6,7.6,7.6h228.1c4.2,0,7.6-3.4,7.6-7.6v-7.6c0-16.8-13.6-30.4-30.4-30.4h-60.8v-76h182.5c16.8,0,30.4-13.6,30.4-30.4
		v-30.7c-0.5,0.1-0.9,0.2-1.4,0.2H150z M393.4,546.5c-8.4,0-15.2-6.8-15.2-15.2S385,516,393.4,516c8.4,0,15.2,6.8,15.2,15.2
		S401.8,546.5,393.4,546.5z"/>
</g>
</svg>
