<?xml version="1.0" encoding="utf-8"?>
<!-- Generator: Adobe Illustrator 27.0.1, SVG Export Plug-In . SVG Version: 6.00 Build 0)  -->
<svg version="1.1" id="Layer_1" xmlns="http://www.w3.org/2000/svg" xmlns:xlink="http://www.w3.org/1999/xlink" x="0px" y="0px"
	 viewBox="0 0 800 1100" style="enable-background:new 0 0 800 1100;" xml:space="preserve">
<style type="text/css">
	.st0{fill:#D8EC9B;}
	.st1{fill:#47670D;}
	.st2{fill:#FFFFFF;}
	.st3{font-family:'Futura-Medium';}
	.st4{font-size:120.8096px;}
</style>
<path class="st0" d="M588.2,800h-375C96.3,800,0.7,704.4,0.7,587.5v-375C0.7,95.6,96.3,0,213.2,0h375
	c116.9,0,212.5,95.6,212.5,212.5v375C800.8,704.4,705.1,800,588.2,800z"/>
<g>
	<path class="st1" d="M399.9,196.7c-100.8,0-182.5,81.7-182.5,182.5c0,43.2,19,81.1,40.1,114.1l130,183.7c2.9,4,7.5,6.4,12.4,6.4
		s9.6-2.4,12.4-6.4l130-183.7c20.1-27.1,40.1-70.9,40.1-114.1C582.5,278.4,500.8,196.7,399.9,196.7z M399.9,485.6
		c-58.8,0-106.5-47.7-106.5-106.5s47.7-106.5,106.5-106.5s106.5,47.7,106.5,106.5S458.8,485.6,399.9,485.6z"/>
	<g>
		<g>
			<path class="st1" d="M294.1,381.6c8.5-8.5,23.8-21.5,46.9-31c26-10.7,49.7-12,64-11.6c26,0.7,45.7,7.6,55.5,11.6
				c23.4,9.6,38.7,22.8,46.9,31"/>
			<path class="st1" d="M294.1,381.6c8.5,9.4,23.8,23.9,46.9,34.4c26,11.9,49.7,13.3,64,12.9c26-0.8,45.7-8.4,55.5-12.9
				c23.4-10.7,38.7-25.3,46.9-34.4"/>
		</g>
		<circle class="st0" cx="400.8" cy="383.9" r="32.7"/>
	</g>
</g>
<text transform="matrix(1 0 0 1 259.1638 1007.2432)" class="st2 st3 st4">VISIT</text>
</svg>
