<?xml version="1.0" encoding="utf-8"?>
<!-- Generator: Adobe Illustrator 27.0.1, SVG Export Plug-In . SVG Version: 6.00 Build 0)  -->
<svg version="1.1" id="Layer_1" xmlns="http://www.w3.org/2000/svg" xmlns:xlink="http://www.w3.org/1999/xlink" x="0px" y="0px"
	 viewBox="0 0 800 800" style="enable-background:new 0 0 800 800;" xml:space="preserve">
<style type="text/css">
	.st0{fill:#47670D;}
	.st1{fill:#D8EC9B;}
</style>
<g>
	<path class="st0" d="M392.6,0c-165.7,0-300,134.3-300,300c0,71,31.3,133.4,65.9,187.5l213.7,301.9c4.7,6.6,12.3,10.6,20.4,10.6
		s15.7-3.9,20.4-10.6l213.7-301.9C659.8,443,692.6,371,692.6,300C692.6,134.3,558.3,0,392.6,0z M392.6,475c-96.7,0-175-78.4-175-175
		s78.3-175,175-175s175,78.3,175,175S489.2,475,392.6,475z"/>
	<g>
		<g>
			<path class="st0" d="M218.5,304c14-13.9,39.2-35.3,77.2-51c42.7-17.6,81.7-19.8,105.2-19.1c42.7,1.1,75,12.5,91.2,19.1
				c38.4,15.9,63.6,37.5,77.2,51"/>
			<path class="st0" d="M218.5,304c14,15.5,39.2,39.2,77.2,56.6c42.7,19.6,81.7,21.9,105.2,21.2c42.7-1.3,75-13.8,91.2-21.2
				c38.4-17.6,63.6-41.6,77.2-56.6"/>
		</g>
		<circle class="st1" cx="393.9" cy="307.9" r="53.7"/>
	</g>
</g>
</svg>
